<svg width="2075" height="2000" viewBox="0 0 2075 2000" fill="none" xmlns="http://www.w3.org/2000/svg">
<rect width="2075" height="2000" rx="100" fill="#127AC6" fill-opacity="0.54"/>
<g filter="url(#filter0_iiii)">
<path d="M646.491 910.75L674.491 900.25L770.741 667.5H781.241L880.991 905.5L898.491 910.75V916H856.491C844.358 916 834.441 913.317 826.741 907.95C819.041 902.35 813.325 895.117 809.591 886.25L791.741 844.25H708.091L684.991 900.25L711.241 910.75V916H646.491V910.75ZM711.591 835.5H788.241L749.741 743.45L711.591 835.5ZM1020.88 921.25C1005.25 921.25 992.182 916 981.682 905.5C977.249 900.833 973.399 895.583 970.132 889.75C968.499 894.883 965.699 899.55 961.732 903.75C952.865 913.083 939.915 917.75 922.882 917.75H919.382V681.5L898.382 676.25V671H943.882C964.882 671 975.382 681.5 975.382 702.5V749.75C979.115 746.717 982.732 744.383 986.232 742.75C994.632 738.083 1004.43 735.75 1015.63 735.75C1039.2 735.75 1057.87 743.8 1071.63 759.9C1085.63 775.767 1092.63 798.633 1092.63 828.5C1092.63 848.333 1089.48 865.25 1083.18 879.25C1076.88 893.017 1068.37 903.517 1057.63 910.75C1046.9 917.75 1034.65 921.25 1020.88 921.25ZM1006.88 909C1014.35 909 1020.53 903.167 1025.43 891.5C1030.57 879.6 1033.13 858.6 1033.13 828.5C1033.13 797 1030.33 775.417 1024.73 763.75C1019.37 752.083 1011.67 746.25 1001.63 746.25C995.565 746.25 989.382 748.583 983.082 753.25C981.215 754.65 978.649 756.983 975.382 760.25V881C977.482 886.367 980.049 891.033 983.082 895C990.082 904.333 998.015 909 1006.88 909ZM1215.21 921.25C1185.35 921.25 1162.13 913.083 1145.56 896.75C1129 880.183 1120.71 857.433 1120.71 828.5C1120.71 809.6 1124.33 793.15 1131.56 779.15C1138.8 765.15 1148.83 754.417 1161.66 746.95C1174.73 739.483 1189.66 735.75 1206.46 735.75C1223.26 735.75 1237.96 738.9 1250.56 745.2C1263.4 751.5 1273.2 760.017 1279.96 770.75C1286.96 781.25 1290.46 792.917 1290.46 805.75C1290.46 811.583 1289.88 816.6 1288.71 820.8L1286.96 826.75C1276.93 828.85 1266.08 830.6 1254.41 832C1229.91 835.5 1205.18 837.25 1180.21 837.25C1180.21 864.317 1183.95 883.683 1191.41 895.35C1198.88 906.783 1209.15 912.5 1222.21 912.5C1231.31 912.5 1239.71 910.4 1247.41 906.2C1255.35 901.767 1261.53 896.05 1265.96 889.05C1270.63 881.817 1272.96 874.467 1272.96 867H1281.71C1281.71 876.333 1278.91 885.2 1273.31 893.6C1267.71 902 1259.9 908.767 1249.86 913.9C1239.83 918.8 1228.28 921.25 1215.21 921.25ZM1180.21 828.5C1195.15 828.5 1207.28 827.917 1216.61 826.75C1220.58 826.517 1224.78 825.933 1229.21 825C1229.45 823.833 1230.03 821.267 1230.96 817.3C1232.13 811.467 1232.71 805.283 1232.71 798.75C1232.71 779.383 1230.15 765.267 1225.01 756.4C1219.88 747.3 1213.7 742.75 1206.46 742.75C1188.96 742.75 1180.21 771.333 1180.21 828.5ZM1316.56 910.75L1337.56 905.5V681.5L1316.56 676.25V671H1362.06C1383.06 671 1393.56 681.5 1393.56 702.5V905.5L1414.56 910.75V916H1316.56V910.75ZM166.67 1314.75L187.67 1309.5V1085.5L166.67 1080.25V1075H266.42V1080.25L245.42 1085.5V1311.25H320.67C320.67 1296.55 324.403 1282.9 331.87 1270.3C335.137 1264.93 338.987 1260.5 343.42 1257H353.92V1320H166.67V1314.75ZM445.043 1325.25C424.276 1325.25 408.293 1320.82 397.093 1311.95C385.893 1303.08 380.293 1291.77 380.293 1278C380.293 1268.9 382.276 1259.92 386.243 1251.05C387.876 1246.85 389.976 1243 392.543 1239.5C402.11 1237.17 412.493 1235.07 423.693 1233.2C448.893 1229 471.176 1226.43 490.543 1225.5V1215C490.543 1189.1 487.393 1171.25 481.093 1161.45C474.793 1151.65 465.11 1146.75 452.043 1146.75C447.143 1146.75 442.943 1147.33 439.443 1148.5L434.543 1150.25V1202.75L429.993 1203.8C426.26 1204.27 423.11 1204.5 420.543 1204.5C412.61 1204.5 406.193 1202.17 401.293 1197.5C396.626 1192.6 394.293 1186.18 394.293 1178.25C394.293 1167.52 399.66 1158.42 410.393 1150.95C421.36 1143.48 437.576 1139.75 459.043 1139.75C477.243 1139.75 492.876 1143.02 505.943 1149.55C519.243 1155.85 529.276 1164.72 536.043 1176.15C543.043 1187.35 546.543 1200.3 546.543 1215V1309.5L567.543 1314.75V1320H536.043C522.043 1320 511.193 1315.68 503.493 1307.05C500.226 1303.55 497.66 1299.12 495.793 1293.75C492.526 1299.58 488.676 1304.83 484.243 1309.5C473.743 1320 460.676 1325.25 445.043 1325.25ZM459.043 1313C467.676 1313 475.493 1308.33 482.493 1299C485.06 1295.5 487.743 1290.83 490.543 1285V1234.25C479.81 1234.25 469.543 1234.83 459.743 1236C452.51 1236.93 447.61 1237.52 445.043 1237.75C443.876 1240.32 442.71 1243.82 441.543 1248.25C439.21 1257.12 438.043 1265.87 438.043 1274.5C438.043 1287.57 440.026 1297.25 443.993 1303.55C447.96 1309.85 452.976 1313 459.043 1313ZM588.707 1314.75L609.707 1309.5V1155.5L588.707 1150.25V1145H620.207C633.974 1145 644.824 1149.43 652.757 1158.3C655.79 1161.8 658.357 1166.12 660.457 1171.25C663.957 1164.72 667.69 1159.47 671.657 1155.5C682.157 1145 694.174 1139.75 707.707 1139.75C721.24 1139.75 733.14 1142.78 743.407 1148.85C753.674 1154.68 761.607 1162.73 767.207 1173C770.707 1166.23 774.44 1160.75 778.407 1156.55C789.14 1145.35 801.157 1139.75 814.457 1139.75C826.824 1139.75 837.907 1142.32 847.707 1147.45C857.74 1152.58 865.44 1159.58 870.807 1168.45C876.407 1177.32 879.207 1187 879.207 1197.5V1309.5L900.207 1314.75V1320H854.707C833.707 1320 823.207 1309.5 823.207 1288.5V1197.5C823.207 1182.33 820.874 1171.02 816.207 1163.55C811.54 1155.85 806.29 1152 800.457 1152C793.69 1152 786.807 1156.67 779.807 1166C777.007 1170.43 774.557 1175.1 772.457 1180V1309.5L793.457 1314.75V1320H695.457V1314.75L716.457 1309.5V1197.5C716.457 1182.33 714.124 1171.02 709.457 1163.55C704.79 1155.85 699.54 1152 693.707 1152C686.94 1152 680.057 1156.67 673.057 1166C670.257 1170.43 667.807 1175.1 665.707 1180V1309.5L686.707 1314.75V1320H588.707V1314.75ZM1015.78 1325.25C985.909 1325.25 962.692 1317.08 946.125 1300.75C929.559 1284.18 921.275 1261.43 921.275 1232.5C921.275 1213.6 924.892 1197.15 932.125 1183.15C939.359 1169.15 949.392 1158.42 962.225 1150.95C975.292 1143.48 990.225 1139.75 1007.03 1139.75C1023.83 1139.75 1038.53 1142.9 1051.13 1149.2C1063.96 1155.5 1073.76 1164.02 1080.53 1174.75C1087.53 1185.25 1091.03 1196.92 1091.03 1209.75C1091.03 1215.58 1090.44 1220.6 1089.28 1224.8L1087.53 1230.75C1077.49 1232.85 1066.64 1234.6 1054.98 1236C1030.48 1239.5 1005.74 1241.25 980.775 1241.25C980.775 1268.32 984.509 1287.68 991.975 1299.35C999.442 1310.78 1009.71 1316.5 1022.78 1316.5C1031.88 1316.5 1040.28 1314.4 1047.98 1310.2C1055.91 1305.77 1062.09 1300.05 1066.53 1293.05C1071.19 1285.82 1073.53 1278.47 1073.53 1271H1082.28C1082.28 1280.33 1079.48 1289.2 1073.88 1297.6C1068.28 1306 1060.46 1312.77 1050.43 1317.9C1040.39 1322.8 1028.84 1325.25 1015.78 1325.25ZM980.775 1232.5C995.709 1232.5 1007.84 1231.92 1017.18 1230.75C1021.14 1230.52 1025.34 1229.93 1029.78 1229C1030.01 1227.83 1030.59 1225.27 1031.53 1221.3C1032.69 1215.47 1033.28 1209.28 1033.28 1202.75C1033.28 1183.38 1030.71 1169.27 1025.58 1160.4C1020.44 1151.3 1014.26 1146.75 1007.03 1146.75C989.525 1146.75 980.775 1175.33 980.775 1232.5ZM1199.38 1325.25C1184.91 1325.25 1171.96 1322.1 1160.53 1315.8C1154.93 1312.77 1150.38 1309.5 1146.88 1306C1143.14 1311.13 1139.06 1315.1 1134.63 1317.9C1132.53 1319.3 1130.19 1320.58 1127.63 1321.75H1118.88V1262.25H1132.88C1135.91 1272.05 1140.34 1281.15 1146.18 1289.55C1158.54 1307.52 1173.94 1316.5 1192.38 1316.5C1202.18 1316.5 1209.53 1314.17 1214.43 1309.5C1219.56 1304.6 1222.13 1297.6 1222.13 1288.5C1222.13 1280.8 1218.63 1274.38 1211.63 1269.25C1204.86 1263.88 1194.13 1257.35 1179.43 1249.65C1166.83 1243.35 1156.56 1237.75 1148.63 1232.85C1140.93 1227.72 1134.28 1221.42 1128.68 1213.95C1123.31 1206.25 1120.63 1197.27 1120.63 1187C1120.63 1173 1126.58 1161.68 1138.48 1153.05C1150.61 1144.18 1169.16 1139.75 1194.13 1139.75C1206.49 1139.75 1217.93 1143.02 1228.43 1149.55C1233.56 1152.58 1237.99 1155.73 1241.73 1159C1244.76 1154.8 1248.84 1150.83 1253.98 1147.1C1257.94 1144.77 1260.28 1143.48 1260.98 1143.25H1269.73V1202.75H1255.73C1252.23 1192.72 1247.91 1183.73 1242.78 1175.8C1231.11 1157.6 1217.23 1148.5 1201.13 1148.5C1194.83 1148.5 1189.46 1150.83 1185.03 1155.5C1180.59 1160.17 1178.38 1166 1178.38 1173C1178.38 1181.87 1182.11 1189.33 1189.58 1195.4C1197.04 1201.23 1208.36 1208 1223.53 1215.7C1235.89 1222 1245.69 1227.6 1252.93 1232.5C1260.39 1237.17 1266.69 1243 1271.83 1250C1277.19 1257 1279.87 1265.17 1279.87 1274.5C1279.87 1308.33 1253.04 1325.25 1199.38 1325.25ZM1388.39 1395.25C1367.62 1395.25 1350.71 1393.38 1337.64 1389.65C1324.57 1385.92 1315.12 1381.13 1309.29 1375.3C1303.69 1369.47 1300.89 1363.28 1300.89 1356.75C1300.89 1348.82 1303.22 1342.4 1307.89 1337.5C1312.79 1332.83 1319.21 1330.5 1327.14 1330.5C1329.01 1330.5 1332.39 1330.85 1337.29 1331.55L1341.14 1332.25V1381.25C1343.94 1382.18 1348.37 1383.35 1354.44 1384.75C1365.17 1387.08 1375.32 1388.25 1384.89 1388.25C1413.36 1388.25 1434.12 1384.17 1447.19 1376C1460.49 1368.07 1467.14 1358.15 1467.14 1346.25C1467.14 1331.08 1453.14 1323.5 1425.14 1323.5H1358.64C1341.14 1323.5 1327.72 1319.88 1318.39 1312.65C1309.06 1305.42 1304.39 1296.2 1304.39 1285C1304.39 1273.8 1309.87 1263.88 1320.84 1255.25C1325.27 1251.98 1330.87 1249.07 1337.64 1246.5C1329.01 1241.13 1322.71 1234.83 1318.74 1227.6C1315.01 1220.13 1313.14 1211.27 1313.14 1201C1313.14 1183.73 1319.67 1169.85 1332.74 1159.35C1345.81 1148.62 1364.94 1143.25 1390.14 1143.25C1401.11 1143.25 1411.14 1144.42 1420.24 1146.75C1429.57 1148.85 1437.04 1151.77 1442.64 1155.5C1444.51 1151.53 1446.96 1148.03 1449.99 1145C1456.99 1138 1465.62 1134.5 1475.89 1134.5C1483.82 1134.5 1490.47 1137.3 1495.84 1142.9C1501.21 1148.27 1503.89 1155.38 1503.89 1164.25C1503.89 1171.02 1502.02 1176.5 1498.29 1180.7C1494.79 1184.9 1490.24 1187 1484.64 1187C1482.07 1187 1479.16 1186.77 1475.89 1186.3L1472.39 1185.25V1143.25C1466.32 1143.25 1460.61 1146.17 1455.24 1152C1453.14 1154.1 1451.27 1157.02 1449.64 1160.75C1461.31 1171.02 1467.14 1184.43 1467.14 1201C1467.14 1218.27 1460.61 1232.27 1447.54 1243C1434.47 1253.5 1415.34 1258.75 1390.14 1258.75C1373.34 1258.75 1358.17 1255.83 1344.64 1250L1337.64 1253.5C1335.31 1254.9 1333.56 1256.3 1332.39 1257.7C1331.22 1258.87 1330.64 1260.38 1330.64 1262.25C1330.64 1266.22 1332.62 1269.25 1336.59 1271.35C1340.79 1273.45 1348.14 1274.5 1358.64 1274.5H1425.14C1442.64 1274.5 1456.29 1279.63 1466.09 1289.9C1476.12 1299.93 1481.14 1314.05 1481.14 1332.25C1481.14 1350.92 1473.32 1366.08 1457.69 1377.75C1442.29 1389.42 1419.19 1395.25 1388.39 1395.25ZM1390.14 1251.75C1397.84 1251.75 1403.79 1248.02 1407.99 1240.55C1412.42 1233.08 1414.64 1219.9 1414.64 1201C1414.64 1182.1 1412.42 1168.92 1407.99 1161.45C1403.79 1153.98 1397.84 1150.25 1390.14 1150.25C1382.44 1150.25 1376.37 1153.98 1371.94 1161.45C1367.74 1168.92 1365.64 1182.1 1365.64 1201C1365.64 1219.9 1367.74 1233.08 1371.94 1240.55C1376.37 1248.02 1382.44 1251.75 1390.14 1251.75ZM1605.72 1325.25C1575.85 1325.25 1552.63 1317.08 1536.07 1300.75C1519.5 1284.18 1511.22 1261.43 1511.22 1232.5C1511.22 1213.6 1514.83 1197.15 1522.07 1183.15C1529.3 1169.15 1539.33 1158.42 1552.17 1150.95C1565.23 1143.48 1580.17 1139.75 1596.97 1139.75C1613.77 1139.75 1628.47 1142.9 1641.07 1149.2C1653.9 1155.5 1663.7 1164.02 1670.47 1174.75C1677.47 1185.25 1680.97 1196.92 1680.97 1209.75C1680.97 1215.58 1680.38 1220.6 1679.22 1224.8L1677.47 1230.75C1667.43 1232.85 1656.58 1234.6 1644.92 1236C1620.42 1239.5 1595.68 1241.25 1570.72 1241.25C1570.72 1268.32 1574.45 1287.68 1581.92 1299.35C1589.38 1310.78 1599.65 1316.5 1612.72 1316.5C1621.82 1316.5 1630.22 1314.4 1637.92 1310.2C1645.85 1305.77 1652.03 1300.05 1656.47 1293.05C1661.13 1285.82 1663.47 1278.47 1663.47 1271H1672.22C1672.22 1280.33 1669.42 1289.2 1663.82 1297.6C1658.22 1306 1650.4 1312.77 1640.37 1317.9C1630.33 1322.8 1618.78 1325.25 1605.72 1325.25ZM1570.72 1232.5C1585.65 1232.5 1597.78 1231.92 1607.12 1230.75C1611.08 1230.52 1615.28 1229.93 1619.72 1229C1619.95 1227.83 1620.53 1225.27 1621.47 1221.3C1622.63 1215.47 1623.22 1209.28 1623.22 1202.75C1623.22 1183.38 1620.65 1169.27 1615.52 1160.4C1610.38 1151.3 1604.2 1146.75 1596.97 1146.75C1579.47 1146.75 1570.72 1175.33 1570.72 1232.5ZM1707.07 1314.75L1728.07 1309.5V1155.5L1707.07 1150.25V1145H1738.57C1752.33 1145 1763.18 1149.43 1771.12 1158.3C1774.15 1161.8 1776.72 1166.12 1778.82 1171.25C1782.08 1165.18 1785.93 1159.93 1790.37 1155.5C1800.87 1145 1813.93 1139.75 1829.57 1139.75C1842.63 1139.75 1854.3 1142.55 1864.57 1148.15C1875.07 1153.52 1883.23 1160.63 1889.07 1169.5C1894.9 1178.37 1897.82 1187.7 1897.82 1197.5V1309.5L1918.82 1314.75V1320H1873.32C1852.32 1320 1841.82 1309.5 1841.82 1288.5V1197.5C1841.82 1182.8 1839.13 1171.6 1833.77 1163.9C1828.63 1155.97 1822.57 1152 1815.57 1152C1806.7 1152 1798.77 1156.67 1791.77 1166C1788.73 1169.97 1786.17 1174.63 1784.07 1180V1309.5L1805.07 1314.75V1320H1707.07V1314.75Z" fill="#F5F5FA"/>
</g>
<defs>
<filter id="filter0_iiii" x="156.67" y="657.5" width="1772.15" height="747.75" filterUnits="userSpaceOnUse" color-interpolation-filters="sRGB">
<feFlood flood-opacity="0" result="BackgroundImageFix"/>
<feBlend mode="normal" in="SourceGraphic" in2="BackgroundImageFix" result="shape"/>
<feColorMatrix in="SourceAlpha" type="matrix" values="0 0 0 0 0 0 0 0 0 0 0 0 0 0 0 0 0 0 127 0" result="hardAlpha"/>
<feOffset dx="10" dy="10"/>
<feGaussianBlur stdDeviation="10"/>
<feComposite in2="hardAlpha" operator="arithmetic" k2="-1" k3="1"/>
<feColorMatrix type="matrix" values="0 0 0 0 0.666667 0 0 0 0 0.666667 0 0 0 0 0.8 0 0 0 0.25 0"/>
<feBlend mode="normal" in2="shape" result="effect1_innerShadow"/>
<feColorMatrix in="SourceAlpha" type="matrix" values="0 0 0 0 0 0 0 0 0 0 0 0 0 0 0 0 0 0 127 0" result="hardAlpha"/>
<feOffset dx="5" dy="5"/>
<feGaussianBlur stdDeviation="5"/>
<feComposite in2="hardAlpha" operator="arithmetic" k2="-1" k3="1"/>
<feColorMatrix type="matrix" values="0 0 0 0 0.666667 0 0 0 0 0.666667 0 0 0 0 0.8 0 0 0 0.25 0"/>
<feBlend mode="normal" in2="effect1_innerShadow" result="effect2_innerShadow"/>
<feColorMatrix in="SourceAlpha" type="matrix" values="0 0 0 0 0 0 0 0 0 0 0 0 0 0 0 0 0 0 127 0" result="hardAlpha"/>
<feOffset dx="-10" dy="-10"/>
<feGaussianBlur stdDeviation="10"/>
<feComposite in2="hardAlpha" operator="arithmetic" k2="-1" k3="1"/>
<feColorMatrix type="matrix" values="0 0 0 0 1 0 0 0 0 1 0 0 0 0 1 0 0 0 0.5 0"/>
<feBlend mode="normal" in2="effect2_innerShadow" result="effect3_innerShadow"/>
<feColorMatrix in="SourceAlpha" type="matrix" values="0 0 0 0 0 0 0 0 0 0 0 0 0 0 0 0 0 0 127 0" result="hardAlpha"/>
<feOffset dx="-5" dy="-5"/>
<feGaussianBlur stdDeviation="5"/>
<feComposite in2="hardAlpha" operator="arithmetic" k2="-1" k3="1"/>
<feColorMatrix type="matrix" values="0 0 0 0 1 0 0 0 0 1 0 0 0 0 1 0 0 0 0.5 0"/>
<feBlend mode="normal" in2="effect3_innerShadow" result="effect4_innerShadow"/>
</filter>
</defs>
</svg>
